<mxfile host="app.diagrams.net" modified="2022-08-23T12:55:04.426Z" agent="5.0 (X11; Linux x86_64) AppleWebKit/537.36 (KHTML, like Gecko) Chrome/103.0.0.0 Safari/537.36" etag="x0KMdDYNQb0dGUVadSR-" version="20.2.6" type="github">
  <diagram id="R2lEEEUBdFMjLlhIrx00" name="Page-1">
    <mxGraphModel dx="3123" dy="2442" grid="1" gridSize="10" guides="1" tooltips="1" connect="1" arrows="1" fold="1" page="1" pageScale="1" pageWidth="850" pageHeight="1100" math="0" shadow="0" extFonts="Permanent Marker^https://fonts.googleapis.com/css?family=Permanent+Marker">
      <root>
        <mxCell id="0" />
        <mxCell id="1" parent="0" />
        <mxCell id="0oKUBStHMxCBbjXoGF3a-63" style="edgeStyle=orthogonalEdgeStyle;rounded=0;sketch=1;hachureGap=4;orthogonalLoop=1;jettySize=auto;html=1;exitX=0.5;exitY=1;exitDx=0;exitDy=0;entryX=0;entryY=0.5;entryDx=0;entryDy=0;fontFamily=Architects Daughter;fontSource=https%3A%2F%2Ffonts.googleapis.com%2Fcss%3Ffamily%3DArchitects%2BDaughter;fontSize=16;fontColor=#46495D;endArrow=none;endFill=0;startSize=14;endSize=14;sourcePerimeterSpacing=8;targetPerimeterSpacing=8;strokeColor=#788AA3;fillColor=#B2C9AB;" parent="1" source="0oKUBStHMxCBbjXoGF3a-10" target="0oKUBStHMxCBbjXoGF3a-19" edge="1">
          <mxGeometry relative="1" as="geometry" />
        </mxCell>
        <mxCell id="0oKUBStHMxCBbjXoGF3a-10" value="Register" style="rhombus;whiteSpace=wrap;html=1;hachureGap=4;fontFamily=Tahoma;fontSize=32;sketch=1;fontStyle=2;fillColor=#fff2cc;strokeColor=#d6b656;" parent="1" vertex="1">
          <mxGeometry x="100" y="435" width="200" height="100" as="geometry" />
        </mxCell>
        <mxCell id="0oKUBStHMxCBbjXoGF3a-62" style="edgeStyle=orthogonalEdgeStyle;curved=1;rounded=0;sketch=1;hachureGap=4;orthogonalLoop=1;jettySize=auto;html=1;exitX=0.5;exitY=1;exitDx=0;exitDy=0;entryX=0.5;entryY=0;entryDx=0;entryDy=0;fontFamily=Architects Daughter;fontSource=https%3A%2F%2Ffonts.googleapis.com%2Fcss%3Ffamily%3DArchitects%2BDaughter;fontSize=16;fontColor=#46495D;endArrow=none;endFill=0;startSize=14;endSize=14;sourcePerimeterSpacing=8;targetPerimeterSpacing=8;strokeColor=#788AA3;fillColor=#B2C9AB;" parent="1" source="0oKUBStHMxCBbjXoGF3a-14" target="0oKUBStHMxCBbjXoGF3a-10" edge="1">
          <mxGeometry relative="1" as="geometry" />
        </mxCell>
        <mxCell id="0oKUBStHMxCBbjXoGF3a-14" value="Company" style="rounded=0;whiteSpace=wrap;html=1;hachureGap=4;fontFamily=Tahoma;fontSize=32;sketch=1;fontStyle=1;fillColor=#B2C9AB;fontColor=#46495D;strokeColor=#788AA3;" parent="1" vertex="1">
          <mxGeometry x="100" y="240" width="200" height="110" as="geometry" />
        </mxCell>
        <mxCell id="0oKUBStHMxCBbjXoGF3a-64" style="edgeStyle=orthogonalEdgeStyle;rounded=0;sketch=1;hachureGap=4;orthogonalLoop=1;jettySize=auto;html=1;exitX=0.5;exitY=1;exitDx=0;exitDy=0;entryX=0.5;entryY=0;entryDx=0;entryDy=0;fontFamily=Architects Daughter;fontSource=https%3A%2F%2Ffonts.googleapis.com%2Fcss%3Ffamily%3DArchitects%2BDaughter;fontSize=16;fontColor=#46495D;endArrow=none;endFill=0;startSize=14;endSize=14;sourcePerimeterSpacing=8;targetPerimeterSpacing=8;strokeColor=#788AA3;fillColor=#B2C9AB;" parent="1" source="0oKUBStHMxCBbjXoGF3a-18" target="0oKUBStHMxCBbjXoGF3a-34" edge="1">
          <mxGeometry relative="1" as="geometry" />
        </mxCell>
        <mxCell id="0oKUBStHMxCBbjXoGF3a-68" style="edgeStyle=orthogonalEdgeStyle;rounded=0;sketch=1;hachureGap=4;orthogonalLoop=1;jettySize=auto;html=1;exitX=1;exitY=0.5;exitDx=0;exitDy=0;entryX=0.5;entryY=0;entryDx=0;entryDy=0;fontFamily=Architects Daughter;fontSource=https%3A%2F%2Ffonts.googleapis.com%2Fcss%3Ffamily%3DArchitects%2BDaughter;fontSize=16;fontColor=#46495D;endArrow=none;endFill=0;startSize=14;endSize=14;sourcePerimeterSpacing=8;targetPerimeterSpacing=8;strokeColor=#788AA3;fillColor=#B2C9AB;" parent="1" source="0oKUBStHMxCBbjXoGF3a-18" target="0oKUBStHMxCBbjXoGF3a-44" edge="1">
          <mxGeometry relative="1" as="geometry" />
        </mxCell>
        <mxCell id="0oKUBStHMxCBbjXoGF3a-18" value="User" style="rounded=0;whiteSpace=wrap;html=1;hachureGap=4;fontFamily=Tahoma;fontSize=32;sketch=1;fontStyle=1;fillColor=#B2C9AB;fontColor=#46495D;strokeColor=#788AA3;" parent="1" vertex="1">
          <mxGeometry x="501" y="240" width="200" height="110" as="geometry" />
        </mxCell>
        <mxCell id="0oKUBStHMxCBbjXoGF3a-70" style="edgeStyle=orthogonalEdgeStyle;rounded=0;sketch=1;hachureGap=4;orthogonalLoop=1;jettySize=auto;html=1;exitX=1;exitY=0.5;exitDx=0;exitDy=0;entryX=0.5;entryY=1;entryDx=0;entryDy=0;fontFamily=Architects Daughter;fontSource=https%3A%2F%2Ffonts.googleapis.com%2Fcss%3Ffamily%3DArchitects%2BDaughter;fontSize=16;fontColor=#46495D;endArrow=none;endFill=0;startSize=14;endSize=14;sourcePerimeterSpacing=8;targetPerimeterSpacing=8;strokeColor=#788AA3;fillColor=#B2C9AB;" parent="1" source="0oKUBStHMxCBbjXoGF3a-19" target="0oKUBStHMxCBbjXoGF3a-34" edge="1">
          <mxGeometry relative="1" as="geometry" />
        </mxCell>
        <mxCell id="0oKUBStHMxCBbjXoGF3a-19" value="Job Posting" style="rounded=0;whiteSpace=wrap;html=1;hachureGap=4;fontFamily=Tahoma;fontSize=32;sketch=1;fontStyle=1;fillColor=#B2C9AB;fontColor=#46495D;strokeColor=#788AA3;" parent="1" vertex="1">
          <mxGeometry x="294" y="610" width="200" height="110" as="geometry" />
        </mxCell>
        <mxCell id="0oKUBStHMxCBbjXoGF3a-34" value="Apply" style="rhombus;whiteSpace=wrap;html=1;hachureGap=4;fontFamily=Tahoma;fontSize=32;sketch=1;fontStyle=2;fillColor=#fff2cc;strokeColor=#d6b656;" parent="1" vertex="1">
          <mxGeometry x="501" y="435" width="200" height="100" as="geometry" />
        </mxCell>
        <mxCell id="0oKUBStHMxCBbjXoGF3a-40" value="&lt;h1 style=&quot;font-size: 57px;&quot;&gt;&lt;span style=&quot;background-color: initial; font-size: 57px;&quot;&gt;&lt;font data-font-src=&quot;https://fonts.googleapis.com/css?family=Permanent+Marker&quot; style=&quot;font-size: 57px;&quot;&gt;Flow Chart&lt;/font&gt;&lt;/span&gt;&lt;br style=&quot;font-size: 57px;&quot;&gt;&lt;/h1&gt;" style="text;html=1;spacing=5;spacingTop=-20;whiteSpace=wrap;overflow=hidden;rounded=0;sketch=1;hachureGap=4;fontFamily=Tahoma;fontSize=57;verticalAlign=middle;align=center;horizontal=1;textDirection=ltr;strokeColor=none;" parent="1" vertex="1">
          <mxGeometry x="260" y="79" width="330" height="110" as="geometry" />
        </mxCell>
        <mxCell id="0oKUBStHMxCBbjXoGF3a-42" value="Application Details" style="rounded=0;whiteSpace=wrap;html=1;hachureGap=4;fontFamily=Tahoma;fontSize=32;sketch=1;fontStyle=0;fillColor=#e1d5e7;strokeColor=#9673a6;" parent="1" vertex="1">
          <mxGeometry x="294" y="810" width="200" height="110" as="geometry" />
        </mxCell>
        <mxCell id="0oKUBStHMxCBbjXoGF3a-71" style="edgeStyle=orthogonalEdgeStyle;rounded=0;sketch=1;hachureGap=4;orthogonalLoop=1;jettySize=auto;html=1;exitX=0.5;exitY=1;exitDx=0;exitDy=0;entryX=1;entryY=0.5;entryDx=0;entryDy=0;fontFamily=Architects Daughter;fontSource=https%3A%2F%2Ffonts.googleapis.com%2Fcss%3Ffamily%3DArchitects%2BDaughter;fontSize=16;fontColor=#46495D;endArrow=none;endFill=0;startSize=14;endSize=14;sourcePerimeterSpacing=8;targetPerimeterSpacing=8;strokeColor=#788AA3;fillColor=#B2C9AB;" parent="1" source="0oKUBStHMxCBbjXoGF3a-44" target="0oKUBStHMxCBbjXoGF3a-42" edge="1">
          <mxGeometry relative="1" as="geometry" />
        </mxCell>
        <mxCell id="0oKUBStHMxCBbjXoGF3a-44" value="Check" style="rhombus;whiteSpace=wrap;html=1;hachureGap=4;fontFamily=Tahoma;fontSize=32;sketch=1;fontStyle=2;fillColor=#fff2cc;strokeColor=#d6b656;" parent="1" vertex="1">
          <mxGeometry x="630" y="712" width="200" height="100" as="geometry" />
        </mxCell>
        <mxCell id="0oKUBStHMxCBbjXoGF3a-72" value="&lt;h1 style=&quot;font-size: 57px;&quot;&gt;ERD&lt;/h1&gt;" style="text;html=1;spacing=5;spacingTop=-20;whiteSpace=wrap;overflow=hidden;rounded=0;sketch=1;hachureGap=4;fontFamily=Tahoma;fontSize=57;verticalAlign=middle;align=center;horizontal=1;textDirection=ltr;strokeColor=none;" parent="1" vertex="1">
          <mxGeometry x="1110" y="-10" width="330" height="110" as="geometry" />
        </mxCell>
        <mxCell id="0oKUBStHMxCBbjXoGF3a-74" value="&lt;font face=&quot;Tahoma&quot;&gt;&lt;b style=&quot;font-size: 19px;&quot;&gt;&lt;font style=&quot;font-size: 19px;&quot;&gt;Options&lt;/font&gt;&lt;/b&gt;&lt;br&gt;Application&lt;br&gt;Details&lt;/font&gt;" style="shape=note;size=20;whiteSpace=wrap;html=1;shadow=1;sketch=1;hachureGap=4;fontFamily=Architects Daughter;fontSource=https%3A%2F%2Ffonts.googleapis.com%2Fcss%3Ffamily%3DArchitects%2BDaughter;fontSize=20;fillColor=#e1d5e7;strokeColor=#9673a6;" parent="1" vertex="1">
          <mxGeometry x="710" y="960" width="130" height="130" as="geometry" />
        </mxCell>
        <mxCell id="0oKUBStHMxCBbjXoGF3a-88" value="Company" style="shape=table;startSize=50;container=1;collapsible=1;childLayout=tableLayout;fixedRows=1;rowLines=0;fontStyle=1;align=center;resizeLast=1;shadow=1;sketch=1;hachureGap=4;fontFamily=Tahoma;fontSize=25;fontColor=#46495D;strokeColor=default;fillColor=#B2C9AB;" parent="1" vertex="1">
          <mxGeometry x="880" y="120" width="290" height="420" as="geometry" />
        </mxCell>
        <mxCell id="0oKUBStHMxCBbjXoGF3a-89" value="" style="shape=tableRow;horizontal=0;startSize=0;swimlaneHead=0;swimlaneBody=0;fillColor=none;collapsible=0;dropTarget=0;points=[[0,0.5],[1,0.5]];portConstraint=eastwest;top=0;left=0;right=0;bottom=1;shadow=1;sketch=1;hachureGap=4;fontFamily=Tahoma;fontSize=25;fontColor=#46495D;strokeColor=default;" parent="0oKUBStHMxCBbjXoGF3a-88" vertex="1">
          <mxGeometry y="50" width="290" height="50" as="geometry" />
        </mxCell>
        <mxCell id="0oKUBStHMxCBbjXoGF3a-90" value="PK" style="shape=partialRectangle;connectable=0;fillColor=none;top=0;left=0;bottom=0;right=0;fontStyle=1;overflow=hidden;shadow=1;sketch=1;hachureGap=4;fontFamily=Tahoma;fontSize=25;fontColor=#46495D;strokeColor=default;" parent="0oKUBStHMxCBbjXoGF3a-89" vertex="1">
          <mxGeometry width="50" height="50" as="geometry">
            <mxRectangle width="50" height="50" as="alternateBounds" />
          </mxGeometry>
        </mxCell>
        <mxCell id="0oKUBStHMxCBbjXoGF3a-91" value="id" style="shape=partialRectangle;connectable=0;fillColor=none;top=0;left=0;bottom=0;right=0;align=left;spacingLeft=6;fontStyle=5;overflow=hidden;shadow=1;sketch=1;hachureGap=4;fontFamily=Tahoma;fontSize=25;fontColor=#46495D;strokeColor=default;" parent="0oKUBStHMxCBbjXoGF3a-89" vertex="1">
          <mxGeometry x="50" width="240" height="50" as="geometry">
            <mxRectangle width="240" height="50" as="alternateBounds" />
          </mxGeometry>
        </mxCell>
        <mxCell id="0oKUBStHMxCBbjXoGF3a-92" value="" style="shape=tableRow;horizontal=0;startSize=0;swimlaneHead=0;swimlaneBody=0;fillColor=none;collapsible=0;dropTarget=0;points=[[0,0.5],[1,0.5]];portConstraint=eastwest;top=0;left=0;right=0;bottom=0;shadow=1;sketch=1;hachureGap=4;fontFamily=Tahoma;fontSize=25;fontColor=#46495D;strokeColor=default;" parent="0oKUBStHMxCBbjXoGF3a-88" vertex="1">
          <mxGeometry y="100" width="290" height="40" as="geometry" />
        </mxCell>
        <mxCell id="0oKUBStHMxCBbjXoGF3a-93" value="" style="shape=partialRectangle;connectable=0;fillColor=none;top=0;left=0;bottom=0;right=0;editable=1;overflow=hidden;shadow=1;sketch=1;hachureGap=4;fontFamily=Tahoma;fontSize=25;fontColor=#46495D;strokeColor=default;" parent="0oKUBStHMxCBbjXoGF3a-92" vertex="1">
          <mxGeometry width="50" height="40" as="geometry">
            <mxRectangle width="50" height="40" as="alternateBounds" />
          </mxGeometry>
        </mxCell>
        <mxCell id="0oKUBStHMxCBbjXoGF3a-94" value="company_name" style="shape=partialRectangle;connectable=0;fillColor=none;top=0;left=0;bottom=0;right=0;align=left;spacingLeft=6;overflow=hidden;shadow=1;sketch=1;hachureGap=4;fontFamily=Tahoma;fontSize=25;fontColor=#46495D;strokeColor=default;" parent="0oKUBStHMxCBbjXoGF3a-92" vertex="1">
          <mxGeometry x="50" width="240" height="40" as="geometry">
            <mxRectangle width="240" height="40" as="alternateBounds" />
          </mxGeometry>
        </mxCell>
        <mxCell id="0oKUBStHMxCBbjXoGF3a-123" value="" style="shape=tableRow;horizontal=0;startSize=0;swimlaneHead=0;swimlaneBody=0;fillColor=none;collapsible=0;dropTarget=0;points=[[0,0.5],[1,0.5]];portConstraint=eastwest;top=0;left=0;right=0;bottom=0;shadow=1;sketch=1;hachureGap=4;fontFamily=Tahoma;fontSize=25;fontColor=#46495D;strokeColor=default;" parent="0oKUBStHMxCBbjXoGF3a-88" vertex="1">
          <mxGeometry y="140" width="290" height="40" as="geometry" />
        </mxCell>
        <mxCell id="0oKUBStHMxCBbjXoGF3a-124" value="" style="shape=partialRectangle;connectable=0;fillColor=none;top=0;left=0;bottom=0;right=0;editable=1;overflow=hidden;shadow=1;sketch=1;hachureGap=4;fontFamily=Tahoma;fontSize=25;fontColor=#46495D;strokeColor=default;" parent="0oKUBStHMxCBbjXoGF3a-123" vertex="1">
          <mxGeometry width="50" height="40" as="geometry">
            <mxRectangle width="50" height="40" as="alternateBounds" />
          </mxGeometry>
        </mxCell>
        <mxCell id="0oKUBStHMxCBbjXoGF3a-125" value="country" style="shape=partialRectangle;connectable=0;fillColor=none;top=0;left=0;bottom=0;right=0;align=left;spacingLeft=6;overflow=hidden;shadow=1;sketch=1;hachureGap=4;fontFamily=Tahoma;fontSize=25;fontColor=#46495D;strokeColor=default;" parent="0oKUBStHMxCBbjXoGF3a-123" vertex="1">
          <mxGeometry x="50" width="240" height="40" as="geometry">
            <mxRectangle width="240" height="40" as="alternateBounds" />
          </mxGeometry>
        </mxCell>
        <mxCell id="0oKUBStHMxCBbjXoGF3a-126" value="" style="shape=tableRow;horizontal=0;startSize=0;swimlaneHead=0;swimlaneBody=0;fillColor=none;collapsible=0;dropTarget=0;points=[[0,0.5],[1,0.5]];portConstraint=eastwest;top=0;left=0;right=0;bottom=0;shadow=1;sketch=1;hachureGap=4;fontFamily=Tahoma;fontSize=25;fontColor=#46495D;strokeColor=default;" parent="0oKUBStHMxCBbjXoGF3a-88" vertex="1">
          <mxGeometry y="180" width="290" height="40" as="geometry" />
        </mxCell>
        <mxCell id="0oKUBStHMxCBbjXoGF3a-127" value="" style="shape=partialRectangle;connectable=0;fillColor=none;top=0;left=0;bottom=0;right=0;editable=1;overflow=hidden;shadow=1;sketch=1;hachureGap=4;fontFamily=Tahoma;fontSize=25;fontColor=#46495D;strokeColor=default;" parent="0oKUBStHMxCBbjXoGF3a-126" vertex="1">
          <mxGeometry width="50" height="40" as="geometry">
            <mxRectangle width="50" height="40" as="alternateBounds" />
          </mxGeometry>
        </mxCell>
        <mxCell id="0oKUBStHMxCBbjXoGF3a-128" value="area" style="shape=partialRectangle;connectable=0;fillColor=none;top=0;left=0;bottom=0;right=0;align=left;spacingLeft=6;overflow=hidden;shadow=1;sketch=1;hachureGap=4;fontFamily=Tahoma;fontSize=25;fontColor=#46495D;strokeColor=default;fontStyle=2" parent="0oKUBStHMxCBbjXoGF3a-126" vertex="1">
          <mxGeometry x="50" width="240" height="40" as="geometry">
            <mxRectangle width="240" height="40" as="alternateBounds" />
          </mxGeometry>
        </mxCell>
        <mxCell id="3RX_LrMm0xTDh0tK7QWw-32" value="" style="shape=tableRow;horizontal=0;startSize=0;swimlaneHead=0;swimlaneBody=0;fillColor=none;collapsible=0;dropTarget=0;points=[[0,0.5],[1,0.5]];portConstraint=eastwest;top=0;left=0;right=0;bottom=0;shadow=1;sketch=1;hachureGap=4;fontFamily=Tahoma;fontSize=25;fontColor=#46495D;strokeColor=default;" vertex="1" parent="0oKUBStHMxCBbjXoGF3a-88">
          <mxGeometry y="220" width="290" height="40" as="geometry" />
        </mxCell>
        <mxCell id="3RX_LrMm0xTDh0tK7QWw-33" value="" style="shape=partialRectangle;connectable=0;fillColor=none;top=0;left=0;bottom=0;right=0;editable=1;overflow=hidden;shadow=1;sketch=1;hachureGap=4;fontFamily=Tahoma;fontSize=25;fontColor=#46495D;strokeColor=default;" vertex="1" parent="3RX_LrMm0xTDh0tK7QWw-32">
          <mxGeometry width="50" height="40" as="geometry">
            <mxRectangle width="50" height="40" as="alternateBounds" />
          </mxGeometry>
        </mxCell>
        <mxCell id="3RX_LrMm0xTDh0tK7QWw-34" value="positions" style="shape=partialRectangle;connectable=0;fillColor=none;top=0;left=0;bottom=0;right=0;align=left;spacingLeft=6;overflow=hidden;shadow=1;sketch=1;hachureGap=4;fontFamily=Tahoma;fontSize=25;fontColor=#46495D;strokeColor=default;fontStyle=2" vertex="1" parent="3RX_LrMm0xTDh0tK7QWw-32">
          <mxGeometry x="50" width="240" height="40" as="geometry">
            <mxRectangle width="240" height="40" as="alternateBounds" />
          </mxGeometry>
        </mxCell>
        <mxCell id="3RX_LrMm0xTDh0tK7QWw-35" value="" style="shape=tableRow;horizontal=0;startSize=0;swimlaneHead=0;swimlaneBody=0;fillColor=none;collapsible=0;dropTarget=0;points=[[0,0.5],[1,0.5]];portConstraint=eastwest;top=0;left=0;right=0;bottom=0;shadow=1;sketch=1;hachureGap=4;fontFamily=Tahoma;fontSize=25;fontColor=#46495D;strokeColor=default;" vertex="1" parent="0oKUBStHMxCBbjXoGF3a-88">
          <mxGeometry y="260" width="290" height="40" as="geometry" />
        </mxCell>
        <mxCell id="3RX_LrMm0xTDh0tK7QWw-36" value="" style="shape=partialRectangle;connectable=0;fillColor=none;top=0;left=0;bottom=0;right=0;editable=1;overflow=hidden;shadow=1;sketch=1;hachureGap=4;fontFamily=Tahoma;fontSize=25;fontColor=#46495D;strokeColor=default;" vertex="1" parent="3RX_LrMm0xTDh0tK7QWw-35">
          <mxGeometry width="50" height="40" as="geometry">
            <mxRectangle width="50" height="40" as="alternateBounds" />
          </mxGeometry>
        </mxCell>
        <mxCell id="3RX_LrMm0xTDh0tK7QWw-37" value="desc" style="shape=partialRectangle;connectable=0;fillColor=none;top=0;left=0;bottom=0;right=0;align=left;spacingLeft=6;overflow=hidden;shadow=1;sketch=1;hachureGap=4;fontFamily=Tahoma;fontSize=25;fontColor=#46495D;strokeColor=default;fontStyle=2" vertex="1" parent="3RX_LrMm0xTDh0tK7QWw-35">
          <mxGeometry x="50" width="240" height="40" as="geometry">
            <mxRectangle width="240" height="40" as="alternateBounds" />
          </mxGeometry>
        </mxCell>
        <mxCell id="3RX_LrMm0xTDh0tK7QWw-38" value="" style="shape=tableRow;horizontal=0;startSize=0;swimlaneHead=0;swimlaneBody=0;fillColor=none;collapsible=0;dropTarget=0;points=[[0,0.5],[1,0.5]];portConstraint=eastwest;top=0;left=0;right=0;bottom=0;shadow=1;sketch=1;hachureGap=4;fontFamily=Tahoma;fontSize=25;fontColor=#46495D;strokeColor=default;" vertex="1" parent="0oKUBStHMxCBbjXoGF3a-88">
          <mxGeometry y="300" width="290" height="40" as="geometry" />
        </mxCell>
        <mxCell id="3RX_LrMm0xTDh0tK7QWw-39" value="" style="shape=partialRectangle;connectable=0;fillColor=none;top=0;left=0;bottom=0;right=0;editable=1;overflow=hidden;shadow=1;sketch=1;hachureGap=4;fontFamily=Tahoma;fontSize=25;fontColor=#46495D;strokeColor=default;" vertex="1" parent="3RX_LrMm0xTDh0tK7QWw-38">
          <mxGeometry width="50" height="40" as="geometry">
            <mxRectangle width="50" height="40" as="alternateBounds" />
          </mxGeometry>
        </mxCell>
        <mxCell id="3RX_LrMm0xTDh0tK7QWw-40" value="createdAt" style="shape=partialRectangle;connectable=0;fillColor=none;top=0;left=0;bottom=0;right=0;align=left;spacingLeft=6;overflow=hidden;shadow=1;sketch=1;hachureGap=4;fontFamily=Tahoma;fontSize=25;fontColor=#46495D;strokeColor=default;fontStyle=2" vertex="1" parent="3RX_LrMm0xTDh0tK7QWw-38">
          <mxGeometry x="50" width="240" height="40" as="geometry">
            <mxRectangle width="240" height="40" as="alternateBounds" />
          </mxGeometry>
        </mxCell>
        <mxCell id="3RX_LrMm0xTDh0tK7QWw-43" value="" style="shape=tableRow;horizontal=0;startSize=0;swimlaneHead=0;swimlaneBody=0;fillColor=none;collapsible=0;dropTarget=0;points=[[0,0.5],[1,0.5]];portConstraint=eastwest;top=0;left=0;right=0;bottom=0;shadow=1;sketch=1;hachureGap=4;fontFamily=Tahoma;fontSize=25;fontColor=#46495D;strokeColor=default;" vertex="1" parent="0oKUBStHMxCBbjXoGF3a-88">
          <mxGeometry y="340" width="290" height="40" as="geometry" />
        </mxCell>
        <mxCell id="3RX_LrMm0xTDh0tK7QWw-44" value="" style="shape=partialRectangle;connectable=0;fillColor=none;top=0;left=0;bottom=0;right=0;editable=1;overflow=hidden;shadow=1;sketch=1;hachureGap=4;fontFamily=Tahoma;fontSize=25;fontColor=#46495D;strokeColor=default;" vertex="1" parent="3RX_LrMm0xTDh0tK7QWw-43">
          <mxGeometry width="50" height="40" as="geometry">
            <mxRectangle width="50" height="40" as="alternateBounds" />
          </mxGeometry>
        </mxCell>
        <mxCell id="3RX_LrMm0xTDh0tK7QWw-45" value="updatedAt" style="shape=partialRectangle;connectable=0;fillColor=none;top=0;left=0;bottom=0;right=0;align=left;spacingLeft=6;overflow=hidden;shadow=1;sketch=1;hachureGap=4;fontFamily=Tahoma;fontSize=25;fontColor=#46495D;strokeColor=default;fontStyle=2" vertex="1" parent="3RX_LrMm0xTDh0tK7QWw-43">
          <mxGeometry x="50" width="240" height="40" as="geometry">
            <mxRectangle width="240" height="40" as="alternateBounds" />
          </mxGeometry>
        </mxCell>
        <mxCell id="3RX_LrMm0xTDh0tK7QWw-46" value="" style="shape=tableRow;horizontal=0;startSize=0;swimlaneHead=0;swimlaneBody=0;fillColor=none;collapsible=0;dropTarget=0;points=[[0,0.5],[1,0.5]];portConstraint=eastwest;top=0;left=0;right=0;bottom=0;shadow=1;sketch=1;hachureGap=4;fontFamily=Tahoma;fontSize=25;fontColor=#46495D;strokeColor=default;" vertex="1" parent="0oKUBStHMxCBbjXoGF3a-88">
          <mxGeometry y="380" width="290" height="40" as="geometry" />
        </mxCell>
        <mxCell id="3RX_LrMm0xTDh0tK7QWw-47" value="" style="shape=partialRectangle;connectable=0;fillColor=none;top=0;left=0;bottom=0;right=0;editable=1;overflow=hidden;shadow=1;sketch=1;hachureGap=4;fontFamily=Tahoma;fontSize=25;fontColor=#46495D;strokeColor=default;" vertex="1" parent="3RX_LrMm0xTDh0tK7QWw-46">
          <mxGeometry width="50" height="40" as="geometry">
            <mxRectangle width="50" height="40" as="alternateBounds" />
          </mxGeometry>
        </mxCell>
        <mxCell id="3RX_LrMm0xTDh0tK7QWw-48" value="deletedAt" style="shape=partialRectangle;connectable=0;fillColor=none;top=0;left=0;bottom=0;right=0;align=left;spacingLeft=6;overflow=hidden;shadow=1;sketch=1;hachureGap=4;fontFamily=Tahoma;fontSize=25;fontColor=#46495D;strokeColor=default;fontStyle=2" vertex="1" parent="3RX_LrMm0xTDh0tK7QWw-46">
          <mxGeometry x="50" width="240" height="40" as="geometry">
            <mxRectangle width="240" height="40" as="alternateBounds" />
          </mxGeometry>
        </mxCell>
        <mxCell id="0oKUBStHMxCBbjXoGF3a-139" value="Application" style="shape=table;startSize=50;container=1;collapsible=1;childLayout=tableLayout;fixedRows=1;rowLines=0;fontStyle=1;align=center;resizeLast=1;shadow=1;sketch=1;hachureGap=4;fontFamily=Tahoma;fontSize=25;fontColor=#46495D;strokeColor=default;fillColor=#B2C9AB;" parent="1" vertex="1">
          <mxGeometry x="880" y="680" width="290" height="300" as="geometry" />
        </mxCell>
        <mxCell id="0oKUBStHMxCBbjXoGF3a-140" value="" style="shape=tableRow;horizontal=0;startSize=0;swimlaneHead=0;swimlaneBody=0;fillColor=none;collapsible=0;dropTarget=0;points=[[0,0.5],[1,0.5]];portConstraint=eastwest;top=0;left=0;right=0;bottom=1;shadow=1;sketch=1;hachureGap=4;fontFamily=Tahoma;fontSize=25;fontColor=#46495D;strokeColor=default;" parent="0oKUBStHMxCBbjXoGF3a-139" vertex="1">
          <mxGeometry y="50" width="290" height="50" as="geometry" />
        </mxCell>
        <mxCell id="0oKUBStHMxCBbjXoGF3a-141" value="PK" style="shape=partialRectangle;connectable=0;fillColor=none;top=0;left=0;bottom=0;right=0;fontStyle=1;overflow=hidden;shadow=1;sketch=1;hachureGap=4;fontFamily=Tahoma;fontSize=25;fontColor=#46495D;strokeColor=default;" parent="0oKUBStHMxCBbjXoGF3a-140" vertex="1">
          <mxGeometry width="50" height="50" as="geometry">
            <mxRectangle width="50" height="50" as="alternateBounds" />
          </mxGeometry>
        </mxCell>
        <mxCell id="0oKUBStHMxCBbjXoGF3a-142" value="id" style="shape=partialRectangle;connectable=0;fillColor=none;top=0;left=0;bottom=0;right=0;align=left;spacingLeft=6;fontStyle=5;overflow=hidden;shadow=1;sketch=1;hachureGap=4;fontFamily=Tahoma;fontSize=25;fontColor=#46495D;strokeColor=default;" parent="0oKUBStHMxCBbjXoGF3a-140" vertex="1">
          <mxGeometry x="50" width="240" height="50" as="geometry">
            <mxRectangle width="240" height="50" as="alternateBounds" />
          </mxGeometry>
        </mxCell>
        <mxCell id="0oKUBStHMxCBbjXoGF3a-143" value="" style="shape=tableRow;horizontal=0;startSize=0;swimlaneHead=0;swimlaneBody=0;fillColor=none;collapsible=0;dropTarget=0;points=[[0,0.5],[1,0.5]];portConstraint=eastwest;top=0;left=0;right=0;bottom=0;shadow=1;sketch=1;hachureGap=4;fontFamily=Tahoma;fontSize=25;fontColor=#46495D;strokeColor=default;" parent="0oKUBStHMxCBbjXoGF3a-139" vertex="1">
          <mxGeometry y="100" width="290" height="40" as="geometry" />
        </mxCell>
        <mxCell id="0oKUBStHMxCBbjXoGF3a-144" value="FK" style="shape=partialRectangle;connectable=0;fillColor=none;top=0;left=0;bottom=0;right=0;editable=1;overflow=hidden;shadow=1;sketch=1;hachureGap=4;fontFamily=Tahoma;fontSize=25;fontColor=#46495D;strokeColor=default;" parent="0oKUBStHMxCBbjXoGF3a-143" vertex="1">
          <mxGeometry width="50" height="40" as="geometry">
            <mxRectangle width="50" height="40" as="alternateBounds" />
          </mxGeometry>
        </mxCell>
        <mxCell id="0oKUBStHMxCBbjXoGF3a-145" value="user_id" style="shape=partialRectangle;connectable=0;fillColor=none;top=0;left=0;bottom=0;right=0;align=left;spacingLeft=6;overflow=hidden;shadow=1;sketch=1;hachureGap=4;fontFamily=Tahoma;fontSize=25;fontColor=#46495D;strokeColor=default;" parent="0oKUBStHMxCBbjXoGF3a-143" vertex="1">
          <mxGeometry x="50" width="240" height="40" as="geometry">
            <mxRectangle width="240" height="40" as="alternateBounds" />
          </mxGeometry>
        </mxCell>
        <mxCell id="3RX_LrMm0xTDh0tK7QWw-29" value="" style="shape=tableRow;horizontal=0;startSize=0;swimlaneHead=0;swimlaneBody=0;fillColor=none;collapsible=0;dropTarget=0;points=[[0,0.5],[1,0.5]];portConstraint=eastwest;top=0;left=0;right=0;bottom=0;shadow=1;sketch=1;hachureGap=4;fontFamily=Tahoma;fontSize=25;fontColor=#46495D;strokeColor=default;" vertex="1" parent="0oKUBStHMxCBbjXoGF3a-139">
          <mxGeometry y="140" width="290" height="40" as="geometry" />
        </mxCell>
        <mxCell id="3RX_LrMm0xTDh0tK7QWw-30" value="FK" style="shape=partialRectangle;connectable=0;fillColor=none;top=0;left=0;bottom=0;right=0;editable=1;overflow=hidden;shadow=1;sketch=1;hachureGap=4;fontFamily=Tahoma;fontSize=25;fontColor=#46495D;strokeColor=default;" vertex="1" parent="3RX_LrMm0xTDh0tK7QWw-29">
          <mxGeometry width="50" height="40" as="geometry">
            <mxRectangle width="50" height="40" as="alternateBounds" />
          </mxGeometry>
        </mxCell>
        <mxCell id="3RX_LrMm0xTDh0tK7QWw-31" value="job_id" style="shape=partialRectangle;connectable=0;fillColor=none;top=0;left=0;bottom=0;right=0;align=left;spacingLeft=6;overflow=hidden;shadow=1;sketch=1;hachureGap=4;fontFamily=Tahoma;fontSize=25;fontColor=#46495D;strokeColor=default;" vertex="1" parent="3RX_LrMm0xTDh0tK7QWw-29">
          <mxGeometry x="50" width="240" height="40" as="geometry">
            <mxRectangle width="240" height="40" as="alternateBounds" />
          </mxGeometry>
        </mxCell>
        <mxCell id="3RX_LrMm0xTDh0tK7QWw-112" value="" style="shape=tableRow;horizontal=0;startSize=0;swimlaneHead=0;swimlaneBody=0;fillColor=none;collapsible=0;dropTarget=0;points=[[0,0.5],[1,0.5]];portConstraint=eastwest;top=0;left=0;right=0;bottom=0;shadow=1;sketch=1;hachureGap=4;fontFamily=Tahoma;fontSize=25;fontColor=#46495D;strokeColor=default;" vertex="1" parent="0oKUBStHMxCBbjXoGF3a-139">
          <mxGeometry y="180" width="290" height="40" as="geometry" />
        </mxCell>
        <mxCell id="3RX_LrMm0xTDh0tK7QWw-113" value="" style="shape=partialRectangle;connectable=0;fillColor=none;top=0;left=0;bottom=0;right=0;editable=1;overflow=hidden;shadow=1;sketch=1;hachureGap=4;fontFamily=Tahoma;fontSize=25;fontColor=#46495D;strokeColor=default;" vertex="1" parent="3RX_LrMm0xTDh0tK7QWw-112">
          <mxGeometry width="50" height="40" as="geometry">
            <mxRectangle width="50" height="40" as="alternateBounds" />
          </mxGeometry>
        </mxCell>
        <mxCell id="3RX_LrMm0xTDh0tK7QWw-114" value="createdAt" style="shape=partialRectangle;connectable=0;fillColor=none;top=0;left=0;bottom=0;right=0;align=left;spacingLeft=6;overflow=hidden;shadow=1;sketch=1;hachureGap=4;fontFamily=Tahoma;fontSize=25;fontColor=#46495D;strokeColor=default;" vertex="1" parent="3RX_LrMm0xTDh0tK7QWw-112">
          <mxGeometry x="50" width="240" height="40" as="geometry">
            <mxRectangle width="240" height="40" as="alternateBounds" />
          </mxGeometry>
        </mxCell>
        <mxCell id="3RX_LrMm0xTDh0tK7QWw-115" value="" style="shape=tableRow;horizontal=0;startSize=0;swimlaneHead=0;swimlaneBody=0;fillColor=none;collapsible=0;dropTarget=0;points=[[0,0.5],[1,0.5]];portConstraint=eastwest;top=0;left=0;right=0;bottom=0;shadow=1;sketch=1;hachureGap=4;fontFamily=Tahoma;fontSize=25;fontColor=#46495D;strokeColor=default;" vertex="1" parent="0oKUBStHMxCBbjXoGF3a-139">
          <mxGeometry y="220" width="290" height="40" as="geometry" />
        </mxCell>
        <mxCell id="3RX_LrMm0xTDh0tK7QWw-116" value="" style="shape=partialRectangle;connectable=0;fillColor=none;top=0;left=0;bottom=0;right=0;editable=1;overflow=hidden;shadow=1;sketch=1;hachureGap=4;fontFamily=Tahoma;fontSize=25;fontColor=#46495D;strokeColor=default;" vertex="1" parent="3RX_LrMm0xTDh0tK7QWw-115">
          <mxGeometry width="50" height="40" as="geometry">
            <mxRectangle width="50" height="40" as="alternateBounds" />
          </mxGeometry>
        </mxCell>
        <mxCell id="3RX_LrMm0xTDh0tK7QWw-117" value="updatedAt" style="shape=partialRectangle;connectable=0;fillColor=none;top=0;left=0;bottom=0;right=0;align=left;spacingLeft=6;overflow=hidden;shadow=1;sketch=1;hachureGap=4;fontFamily=Tahoma;fontSize=25;fontColor=#46495D;strokeColor=default;" vertex="1" parent="3RX_LrMm0xTDh0tK7QWw-115">
          <mxGeometry x="50" width="240" height="40" as="geometry">
            <mxRectangle width="240" height="40" as="alternateBounds" />
          </mxGeometry>
        </mxCell>
        <mxCell id="3RX_LrMm0xTDh0tK7QWw-118" value="" style="shape=tableRow;horizontal=0;startSize=0;swimlaneHead=0;swimlaneBody=0;fillColor=none;collapsible=0;dropTarget=0;points=[[0,0.5],[1,0.5]];portConstraint=eastwest;top=0;left=0;right=0;bottom=0;shadow=1;sketch=1;hachureGap=4;fontFamily=Tahoma;fontSize=25;fontColor=#46495D;strokeColor=default;" vertex="1" parent="0oKUBStHMxCBbjXoGF3a-139">
          <mxGeometry y="260" width="290" height="40" as="geometry" />
        </mxCell>
        <mxCell id="3RX_LrMm0xTDh0tK7QWw-119" value="" style="shape=partialRectangle;connectable=0;fillColor=none;top=0;left=0;bottom=0;right=0;editable=1;overflow=hidden;shadow=1;sketch=1;hachureGap=4;fontFamily=Tahoma;fontSize=25;fontColor=#46495D;strokeColor=default;" vertex="1" parent="3RX_LrMm0xTDh0tK7QWw-118">
          <mxGeometry width="50" height="40" as="geometry">
            <mxRectangle width="50" height="40" as="alternateBounds" />
          </mxGeometry>
        </mxCell>
        <mxCell id="3RX_LrMm0xTDh0tK7QWw-120" value="deletedAt" style="shape=partialRectangle;connectable=0;fillColor=none;top=0;left=0;bottom=0;right=0;align=left;spacingLeft=6;overflow=hidden;shadow=1;sketch=1;hachureGap=4;fontFamily=Tahoma;fontSize=25;fontColor=#46495D;strokeColor=default;" vertex="1" parent="3RX_LrMm0xTDh0tK7QWw-118">
          <mxGeometry x="50" width="240" height="40" as="geometry">
            <mxRectangle width="240" height="40" as="alternateBounds" />
          </mxGeometry>
        </mxCell>
        <mxCell id="3RX_LrMm0xTDh0tK7QWw-150" style="edgeStyle=orthogonalEdgeStyle;rounded=0;orthogonalLoop=1;jettySize=auto;html=1;entryX=0.5;entryY=0;entryDx=0;entryDy=0;startArrow=ERmandOne;startFill=0;endArrow=baseDash;endFill=0;" edge="1" parent="1" source="3RX_LrMm0xTDh0tK7QWw-4" target="3RX_LrMm0xTDh0tK7QWw-124">
          <mxGeometry relative="1" as="geometry" />
        </mxCell>
        <mxCell id="3RX_LrMm0xTDh0tK7QWw-4" value="Job Posting" style="shape=table;startSize=50;container=1;collapsible=1;childLayout=tableLayout;fixedRows=1;rowLines=0;fontStyle=1;align=center;resizeLast=1;shadow=1;sketch=1;hachureGap=4;fontFamily=Tahoma;fontSize=25;fontColor=#46495D;strokeColor=default;fillColor=#B2C9AB;" vertex="1" parent="1">
          <mxGeometry x="1370" y="125" width="290" height="414" as="geometry" />
        </mxCell>
        <mxCell id="3RX_LrMm0xTDh0tK7QWw-5" value="" style="shape=tableRow;horizontal=0;startSize=0;swimlaneHead=0;swimlaneBody=0;fillColor=none;collapsible=0;dropTarget=0;points=[[0,0.5],[1,0.5]];portConstraint=eastwest;top=0;left=0;right=0;bottom=1;shadow=1;sketch=1;hachureGap=4;fontFamily=Tahoma;fontSize=25;fontColor=#46495D;strokeColor=default;" vertex="1" parent="3RX_LrMm0xTDh0tK7QWw-4">
          <mxGeometry y="50" width="290" height="50" as="geometry" />
        </mxCell>
        <mxCell id="3RX_LrMm0xTDh0tK7QWw-6" value="PK" style="shape=partialRectangle;connectable=0;fillColor=none;top=0;left=0;bottom=0;right=0;fontStyle=1;overflow=hidden;shadow=1;sketch=1;hachureGap=4;fontFamily=Tahoma;fontSize=25;fontColor=#46495D;strokeColor=default;" vertex="1" parent="3RX_LrMm0xTDh0tK7QWw-5">
          <mxGeometry width="50" height="50" as="geometry">
            <mxRectangle width="50" height="50" as="alternateBounds" />
          </mxGeometry>
        </mxCell>
        <mxCell id="3RX_LrMm0xTDh0tK7QWw-7" value="id" style="shape=partialRectangle;connectable=0;fillColor=none;top=0;left=0;bottom=0;right=0;align=left;spacingLeft=6;fontStyle=5;overflow=hidden;shadow=1;sketch=1;hachureGap=4;fontFamily=Tahoma;fontSize=25;fontColor=#46495D;strokeColor=default;" vertex="1" parent="3RX_LrMm0xTDh0tK7QWw-5">
          <mxGeometry x="50" width="240" height="50" as="geometry">
            <mxRectangle width="240" height="50" as="alternateBounds" />
          </mxGeometry>
        </mxCell>
        <mxCell id="3RX_LrMm0xTDh0tK7QWw-8" value="" style="shape=tableRow;horizontal=0;startSize=0;swimlaneHead=0;swimlaneBody=0;fillColor=none;collapsible=0;dropTarget=0;points=[[0,0.5],[1,0.5]];portConstraint=eastwest;top=0;left=0;right=0;bottom=0;shadow=1;sketch=1;hachureGap=4;fontFamily=Tahoma;fontSize=25;fontColor=#46495D;strokeColor=default;" vertex="1" parent="3RX_LrMm0xTDh0tK7QWw-4">
          <mxGeometry y="100" width="290" height="40" as="geometry" />
        </mxCell>
        <mxCell id="3RX_LrMm0xTDh0tK7QWw-9" value="FK" style="shape=partialRectangle;connectable=0;fillColor=none;top=0;left=0;bottom=0;right=0;editable=1;overflow=hidden;shadow=1;sketch=1;hachureGap=4;fontFamily=Tahoma;fontSize=25;fontColor=#46495D;strokeColor=default;" vertex="1" parent="3RX_LrMm0xTDh0tK7QWw-8">
          <mxGeometry width="50" height="40" as="geometry">
            <mxRectangle width="50" height="40" as="alternateBounds" />
          </mxGeometry>
        </mxCell>
        <mxCell id="3RX_LrMm0xTDh0tK7QWw-10" value="company_id" style="shape=partialRectangle;connectable=0;fillColor=none;top=0;left=0;bottom=0;right=0;align=left;spacingLeft=6;overflow=hidden;shadow=1;sketch=1;hachureGap=4;fontFamily=Tahoma;fontSize=25;fontColor=#46495D;strokeColor=default;" vertex="1" parent="3RX_LrMm0xTDh0tK7QWw-8">
          <mxGeometry x="50" width="240" height="40" as="geometry">
            <mxRectangle width="240" height="40" as="alternateBounds" />
          </mxGeometry>
        </mxCell>
        <mxCell id="3RX_LrMm0xTDh0tK7QWw-11" value="" style="shape=tableRow;horizontal=0;startSize=0;swimlaneHead=0;swimlaneBody=0;fillColor=none;collapsible=0;dropTarget=0;points=[[0,0.5],[1,0.5]];portConstraint=eastwest;top=0;left=0;right=0;bottom=0;shadow=1;sketch=1;hachureGap=4;fontFamily=Tahoma;fontSize=25;fontColor=#46495D;strokeColor=default;" vertex="1" parent="3RX_LrMm0xTDh0tK7QWw-4">
          <mxGeometry y="140" width="290" height="34" as="geometry" />
        </mxCell>
        <mxCell id="3RX_LrMm0xTDh0tK7QWw-12" value="" style="shape=partialRectangle;connectable=0;fillColor=none;top=0;left=0;bottom=0;right=0;editable=1;overflow=hidden;shadow=1;sketch=1;hachureGap=4;fontFamily=Tahoma;fontSize=25;fontColor=#46495D;strokeColor=default;" vertex="1" parent="3RX_LrMm0xTDh0tK7QWw-11">
          <mxGeometry width="50" height="34" as="geometry">
            <mxRectangle width="50" height="34" as="alternateBounds" />
          </mxGeometry>
        </mxCell>
        <mxCell id="3RX_LrMm0xTDh0tK7QWw-13" value="position" style="shape=partialRectangle;connectable=0;fillColor=none;top=0;left=0;bottom=0;right=0;align=left;spacingLeft=6;overflow=hidden;shadow=1;sketch=1;hachureGap=4;fontFamily=Tahoma;fontSize=25;fontColor=#46495D;strokeColor=default;" vertex="1" parent="3RX_LrMm0xTDh0tK7QWw-11">
          <mxGeometry x="50" width="240" height="34" as="geometry">
            <mxRectangle width="240" height="34" as="alternateBounds" />
          </mxGeometry>
        </mxCell>
        <mxCell id="3RX_LrMm0xTDh0tK7QWw-14" value="" style="shape=tableRow;horizontal=0;startSize=0;swimlaneHead=0;swimlaneBody=0;fillColor=none;collapsible=0;dropTarget=0;points=[[0,0.5],[1,0.5]];portConstraint=eastwest;top=0;left=0;right=0;bottom=0;shadow=1;sketch=1;hachureGap=4;fontFamily=Tahoma;fontSize=25;fontColor=#46495D;strokeColor=default;" vertex="1" parent="3RX_LrMm0xTDh0tK7QWw-4">
          <mxGeometry y="174" width="290" height="40" as="geometry" />
        </mxCell>
        <mxCell id="3RX_LrMm0xTDh0tK7QWw-15" value="" style="shape=partialRectangle;connectable=0;fillColor=none;top=0;left=0;bottom=0;right=0;editable=1;overflow=hidden;shadow=1;sketch=1;hachureGap=4;fontFamily=Tahoma;fontSize=25;fontColor=#46495D;strokeColor=default;" vertex="1" parent="3RX_LrMm0xTDh0tK7QWw-14">
          <mxGeometry width="50" height="40" as="geometry">
            <mxRectangle width="50" height="40" as="alternateBounds" />
          </mxGeometry>
        </mxCell>
        <mxCell id="3RX_LrMm0xTDh0tK7QWw-16" value="compensation" style="shape=partialRectangle;connectable=0;fillColor=none;top=0;left=0;bottom=0;right=0;align=left;spacingLeft=6;overflow=hidden;shadow=1;sketch=1;hachureGap=4;fontFamily=Tahoma;fontSize=25;fontColor=#46495D;strokeColor=default;" vertex="1" parent="3RX_LrMm0xTDh0tK7QWw-14">
          <mxGeometry x="50" width="240" height="40" as="geometry">
            <mxRectangle width="240" height="40" as="alternateBounds" />
          </mxGeometry>
        </mxCell>
        <mxCell id="3RX_LrMm0xTDh0tK7QWw-17" value="" style="shape=tableRow;horizontal=0;startSize=0;swimlaneHead=0;swimlaneBody=0;fillColor=none;collapsible=0;dropTarget=0;points=[[0,0.5],[1,0.5]];portConstraint=eastwest;top=0;left=0;right=0;bottom=0;shadow=1;sketch=1;hachureGap=4;fontFamily=Tahoma;fontSize=25;fontColor=#46495D;strokeColor=default;" vertex="1" parent="3RX_LrMm0xTDh0tK7QWw-4">
          <mxGeometry y="214" width="290" height="40" as="geometry" />
        </mxCell>
        <mxCell id="3RX_LrMm0xTDh0tK7QWw-18" value="" style="shape=partialRectangle;connectable=0;fillColor=none;top=0;left=0;bottom=0;right=0;editable=1;overflow=hidden;shadow=1;sketch=1;hachureGap=4;fontFamily=Tahoma;fontSize=25;fontColor=#46495D;strokeColor=default;" vertex="1" parent="3RX_LrMm0xTDh0tK7QWw-17">
          <mxGeometry width="50" height="40" as="geometry">
            <mxRectangle width="50" height="40" as="alternateBounds" />
          </mxGeometry>
        </mxCell>
        <mxCell id="3RX_LrMm0xTDh0tK7QWw-19" value="skill" style="shape=partialRectangle;connectable=0;fillColor=none;top=0;left=0;bottom=0;right=0;align=left;spacingLeft=6;overflow=hidden;shadow=1;sketch=1;hachureGap=4;fontFamily=Tahoma;fontSize=25;fontColor=#46495D;strokeColor=default;" vertex="1" parent="3RX_LrMm0xTDh0tK7QWw-17">
          <mxGeometry x="50" width="240" height="40" as="geometry">
            <mxRectangle width="240" height="40" as="alternateBounds" />
          </mxGeometry>
        </mxCell>
        <mxCell id="3RX_LrMm0xTDh0tK7QWw-26" value="" style="shape=tableRow;horizontal=0;startSize=0;swimlaneHead=0;swimlaneBody=0;fillColor=none;collapsible=0;dropTarget=0;points=[[0,0.5],[1,0.5]];portConstraint=eastwest;top=0;left=0;right=0;bottom=0;shadow=1;sketch=1;hachureGap=4;fontFamily=Tahoma;fontSize=25;fontColor=#46495D;strokeColor=default;" vertex="1" parent="3RX_LrMm0xTDh0tK7QWw-4">
          <mxGeometry y="254" width="290" height="40" as="geometry" />
        </mxCell>
        <mxCell id="3RX_LrMm0xTDh0tK7QWw-27" value="" style="shape=partialRectangle;connectable=0;fillColor=none;top=0;left=0;bottom=0;right=0;editable=1;overflow=hidden;shadow=1;sketch=1;hachureGap=4;fontFamily=Tahoma;fontSize=25;fontColor=#46495D;strokeColor=default;" vertex="1" parent="3RX_LrMm0xTDh0tK7QWw-26">
          <mxGeometry width="50" height="40" as="geometry">
            <mxRectangle width="50" height="40" as="alternateBounds" />
          </mxGeometry>
        </mxCell>
        <mxCell id="3RX_LrMm0xTDh0tK7QWw-28" value="text" style="shape=partialRectangle;connectable=0;fillColor=none;top=0;left=0;bottom=0;right=0;align=left;spacingLeft=6;overflow=hidden;shadow=1;sketch=1;hachureGap=4;fontFamily=Tahoma;fontSize=25;fontColor=#46495D;strokeColor=default;" vertex="1" parent="3RX_LrMm0xTDh0tK7QWw-26">
          <mxGeometry x="50" width="240" height="40" as="geometry">
            <mxRectangle width="240" height="40" as="alternateBounds" />
          </mxGeometry>
        </mxCell>
        <mxCell id="3RX_LrMm0xTDh0tK7QWw-103" value="" style="shape=tableRow;horizontal=0;startSize=0;swimlaneHead=0;swimlaneBody=0;fillColor=none;collapsible=0;dropTarget=0;points=[[0,0.5],[1,0.5]];portConstraint=eastwest;top=0;left=0;right=0;bottom=0;shadow=1;sketch=1;hachureGap=4;fontFamily=Tahoma;fontSize=25;fontColor=#46495D;strokeColor=default;" vertex="1" parent="3RX_LrMm0xTDh0tK7QWw-4">
          <mxGeometry y="294" width="290" height="40" as="geometry" />
        </mxCell>
        <mxCell id="3RX_LrMm0xTDh0tK7QWw-104" value="" style="shape=partialRectangle;connectable=0;fillColor=none;top=0;left=0;bottom=0;right=0;editable=1;overflow=hidden;shadow=1;sketch=1;hachureGap=4;fontFamily=Tahoma;fontSize=25;fontColor=#46495D;strokeColor=default;" vertex="1" parent="3RX_LrMm0xTDh0tK7QWw-103">
          <mxGeometry width="50" height="40" as="geometry">
            <mxRectangle width="50" height="40" as="alternateBounds" />
          </mxGeometry>
        </mxCell>
        <mxCell id="3RX_LrMm0xTDh0tK7QWw-105" value="createdAt" style="shape=partialRectangle;connectable=0;fillColor=none;top=0;left=0;bottom=0;right=0;align=left;spacingLeft=6;overflow=hidden;shadow=1;sketch=1;hachureGap=4;fontFamily=Tahoma;fontSize=25;fontColor=#46495D;strokeColor=default;" vertex="1" parent="3RX_LrMm0xTDh0tK7QWw-103">
          <mxGeometry x="50" width="240" height="40" as="geometry">
            <mxRectangle width="240" height="40" as="alternateBounds" />
          </mxGeometry>
        </mxCell>
        <mxCell id="3RX_LrMm0xTDh0tK7QWw-106" value="" style="shape=tableRow;horizontal=0;startSize=0;swimlaneHead=0;swimlaneBody=0;fillColor=none;collapsible=0;dropTarget=0;points=[[0,0.5],[1,0.5]];portConstraint=eastwest;top=0;left=0;right=0;bottom=0;shadow=1;sketch=1;hachureGap=4;fontFamily=Tahoma;fontSize=25;fontColor=#46495D;strokeColor=default;" vertex="1" parent="3RX_LrMm0xTDh0tK7QWw-4">
          <mxGeometry y="334" width="290" height="40" as="geometry" />
        </mxCell>
        <mxCell id="3RX_LrMm0xTDh0tK7QWw-107" value="" style="shape=partialRectangle;connectable=0;fillColor=none;top=0;left=0;bottom=0;right=0;editable=1;overflow=hidden;shadow=1;sketch=1;hachureGap=4;fontFamily=Tahoma;fontSize=25;fontColor=#46495D;strokeColor=default;" vertex="1" parent="3RX_LrMm0xTDh0tK7QWw-106">
          <mxGeometry width="50" height="40" as="geometry">
            <mxRectangle width="50" height="40" as="alternateBounds" />
          </mxGeometry>
        </mxCell>
        <mxCell id="3RX_LrMm0xTDh0tK7QWw-108" value="updatedAt" style="shape=partialRectangle;connectable=0;fillColor=none;top=0;left=0;bottom=0;right=0;align=left;spacingLeft=6;overflow=hidden;shadow=1;sketch=1;hachureGap=4;fontFamily=Tahoma;fontSize=25;fontColor=#46495D;strokeColor=default;" vertex="1" parent="3RX_LrMm0xTDh0tK7QWw-106">
          <mxGeometry x="50" width="240" height="40" as="geometry">
            <mxRectangle width="240" height="40" as="alternateBounds" />
          </mxGeometry>
        </mxCell>
        <mxCell id="3RX_LrMm0xTDh0tK7QWw-109" value="" style="shape=tableRow;horizontal=0;startSize=0;swimlaneHead=0;swimlaneBody=0;fillColor=none;collapsible=0;dropTarget=0;points=[[0,0.5],[1,0.5]];portConstraint=eastwest;top=0;left=0;right=0;bottom=0;shadow=1;sketch=1;hachureGap=4;fontFamily=Tahoma;fontSize=25;fontColor=#46495D;strokeColor=default;" vertex="1" parent="3RX_LrMm0xTDh0tK7QWw-4">
          <mxGeometry y="374" width="290" height="40" as="geometry" />
        </mxCell>
        <mxCell id="3RX_LrMm0xTDh0tK7QWw-110" value="" style="shape=partialRectangle;connectable=0;fillColor=none;top=0;left=0;bottom=0;right=0;editable=1;overflow=hidden;shadow=1;sketch=1;hachureGap=4;fontFamily=Tahoma;fontSize=25;fontColor=#46495D;strokeColor=default;" vertex="1" parent="3RX_LrMm0xTDh0tK7QWw-109">
          <mxGeometry width="50" height="40" as="geometry">
            <mxRectangle width="50" height="40" as="alternateBounds" />
          </mxGeometry>
        </mxCell>
        <mxCell id="3RX_LrMm0xTDh0tK7QWw-111" value="deletedAt" style="shape=partialRectangle;connectable=0;fillColor=none;top=0;left=0;bottom=0;right=0;align=left;spacingLeft=6;overflow=hidden;shadow=1;sketch=1;hachureGap=4;fontFamily=Tahoma;fontSize=25;fontColor=#46495D;strokeColor=default;" vertex="1" parent="3RX_LrMm0xTDh0tK7QWw-109">
          <mxGeometry x="50" width="240" height="40" as="geometry">
            <mxRectangle width="240" height="40" as="alternateBounds" />
          </mxGeometry>
        </mxCell>
        <mxCell id="3RX_LrMm0xTDh0tK7QWw-94" value="" style="shape=tableRow;horizontal=0;startSize=0;swimlaneHead=0;swimlaneBody=0;fillColor=none;collapsible=0;dropTarget=0;points=[[0,0.5],[1,0.5]];portConstraint=eastwest;top=0;left=0;right=0;bottom=0;shadow=1;sketch=1;hachureGap=4;fontFamily=Tahoma;fontSize=25;fontColor=#46495D;strokeColor=default;" vertex="1" parent="1">
          <mxGeometry x="1320" y="940" width="290" height="40" as="geometry" />
        </mxCell>
        <mxCell id="3RX_LrMm0xTDh0tK7QWw-95" value="" style="shape=partialRectangle;connectable=0;fillColor=none;top=0;left=0;bottom=0;right=0;editable=1;overflow=hidden;shadow=1;sketch=1;hachureGap=4;fontFamily=Tahoma;fontSize=25;fontColor=#46495D;strokeColor=default;" vertex="1" parent="3RX_LrMm0xTDh0tK7QWw-94">
          <mxGeometry width="50" height="40" as="geometry">
            <mxRectangle width="50" height="40" as="alternateBounds" />
          </mxGeometry>
        </mxCell>
        <mxCell id="3RX_LrMm0xTDh0tK7QWw-124" value="User" style="shape=table;startSize=50;container=1;collapsible=1;childLayout=tableLayout;fixedRows=1;rowLines=0;fontStyle=1;align=center;resizeLast=1;shadow=1;sketch=1;hachureGap=4;fontFamily=Tahoma;fontSize=25;fontColor=#46495D;strokeColor=default;fillColor=#B2C9AB;" vertex="1" parent="1">
          <mxGeometry x="1370" y="680" width="290" height="260" as="geometry" />
        </mxCell>
        <mxCell id="3RX_LrMm0xTDh0tK7QWw-125" value="" style="shape=tableRow;horizontal=0;startSize=0;swimlaneHead=0;swimlaneBody=0;fillColor=none;collapsible=0;dropTarget=0;points=[[0,0.5],[1,0.5]];portConstraint=eastwest;top=0;left=0;right=0;bottom=1;shadow=1;sketch=1;hachureGap=4;fontFamily=Tahoma;fontSize=25;fontColor=#46495D;strokeColor=default;" vertex="1" parent="3RX_LrMm0xTDh0tK7QWw-124">
          <mxGeometry y="50" width="290" height="50" as="geometry" />
        </mxCell>
        <mxCell id="3RX_LrMm0xTDh0tK7QWw-126" value="PK" style="shape=partialRectangle;connectable=0;fillColor=none;top=0;left=0;bottom=0;right=0;fontStyle=1;overflow=hidden;shadow=1;sketch=1;hachureGap=4;fontFamily=Tahoma;fontSize=25;fontColor=#46495D;strokeColor=default;" vertex="1" parent="3RX_LrMm0xTDh0tK7QWw-125">
          <mxGeometry width="50" height="50" as="geometry">
            <mxRectangle width="50" height="50" as="alternateBounds" />
          </mxGeometry>
        </mxCell>
        <mxCell id="3RX_LrMm0xTDh0tK7QWw-127" value="id" style="shape=partialRectangle;connectable=0;fillColor=none;top=0;left=0;bottom=0;right=0;align=left;spacingLeft=6;fontStyle=5;overflow=hidden;shadow=1;sketch=1;hachureGap=4;fontFamily=Tahoma;fontSize=25;fontColor=#46495D;strokeColor=default;" vertex="1" parent="3RX_LrMm0xTDh0tK7QWw-125">
          <mxGeometry x="50" width="240" height="50" as="geometry">
            <mxRectangle width="240" height="50" as="alternateBounds" />
          </mxGeometry>
        </mxCell>
        <mxCell id="3RX_LrMm0xTDh0tK7QWw-128" value="" style="shape=tableRow;horizontal=0;startSize=0;swimlaneHead=0;swimlaneBody=0;fillColor=none;collapsible=0;dropTarget=0;points=[[0,0.5],[1,0.5]];portConstraint=eastwest;top=0;left=0;right=0;bottom=0;shadow=1;sketch=1;hachureGap=4;fontFamily=Tahoma;fontSize=25;fontColor=#46495D;strokeColor=default;" vertex="1" parent="3RX_LrMm0xTDh0tK7QWw-124">
          <mxGeometry y="100" width="290" height="40" as="geometry" />
        </mxCell>
        <mxCell id="3RX_LrMm0xTDh0tK7QWw-129" value="" style="shape=partialRectangle;connectable=0;fillColor=none;top=0;left=0;bottom=0;right=0;editable=1;overflow=hidden;shadow=1;sketch=1;hachureGap=4;fontFamily=Tahoma;fontSize=25;fontColor=#46495D;strokeColor=default;" vertex="1" parent="3RX_LrMm0xTDh0tK7QWw-128">
          <mxGeometry width="50" height="40" as="geometry">
            <mxRectangle width="50" height="40" as="alternateBounds" />
          </mxGeometry>
        </mxCell>
        <mxCell id="3RX_LrMm0xTDh0tK7QWw-130" value="user_id" style="shape=partialRectangle;connectable=0;fillColor=none;top=0;left=0;bottom=0;right=0;align=left;spacingLeft=6;overflow=hidden;shadow=1;sketch=1;hachureGap=4;fontFamily=Tahoma;fontSize=25;fontColor=#46495D;strokeColor=default;" vertex="1" parent="3RX_LrMm0xTDh0tK7QWw-128">
          <mxGeometry x="50" width="240" height="40" as="geometry">
            <mxRectangle width="240" height="40" as="alternateBounds" />
          </mxGeometry>
        </mxCell>
        <mxCell id="3RX_LrMm0xTDh0tK7QWw-134" value="" style="shape=tableRow;horizontal=0;startSize=0;swimlaneHead=0;swimlaneBody=0;fillColor=none;collapsible=0;dropTarget=0;points=[[0,0.5],[1,0.5]];portConstraint=eastwest;top=0;left=0;right=0;bottom=0;shadow=1;sketch=1;hachureGap=4;fontFamily=Tahoma;fontSize=25;fontColor=#46495D;strokeColor=default;" vertex="1" parent="3RX_LrMm0xTDh0tK7QWw-124">
          <mxGeometry y="140" width="290" height="40" as="geometry" />
        </mxCell>
        <mxCell id="3RX_LrMm0xTDh0tK7QWw-135" value="" style="shape=partialRectangle;connectable=0;fillColor=none;top=0;left=0;bottom=0;right=0;editable=1;overflow=hidden;shadow=1;sketch=1;hachureGap=4;fontFamily=Tahoma;fontSize=25;fontColor=#46495D;strokeColor=default;" vertex="1" parent="3RX_LrMm0xTDh0tK7QWw-134">
          <mxGeometry width="50" height="40" as="geometry">
            <mxRectangle width="50" height="40" as="alternateBounds" />
          </mxGeometry>
        </mxCell>
        <mxCell id="3RX_LrMm0xTDh0tK7QWw-136" value="createdAt" style="shape=partialRectangle;connectable=0;fillColor=none;top=0;left=0;bottom=0;right=0;align=left;spacingLeft=6;overflow=hidden;shadow=1;sketch=1;hachureGap=4;fontFamily=Tahoma;fontSize=25;fontColor=#46495D;strokeColor=default;" vertex="1" parent="3RX_LrMm0xTDh0tK7QWw-134">
          <mxGeometry x="50" width="240" height="40" as="geometry">
            <mxRectangle width="240" height="40" as="alternateBounds" />
          </mxGeometry>
        </mxCell>
        <mxCell id="3RX_LrMm0xTDh0tK7QWw-137" value="" style="shape=tableRow;horizontal=0;startSize=0;swimlaneHead=0;swimlaneBody=0;fillColor=none;collapsible=0;dropTarget=0;points=[[0,0.5],[1,0.5]];portConstraint=eastwest;top=0;left=0;right=0;bottom=0;shadow=1;sketch=1;hachureGap=4;fontFamily=Tahoma;fontSize=25;fontColor=#46495D;strokeColor=default;" vertex="1" parent="3RX_LrMm0xTDh0tK7QWw-124">
          <mxGeometry y="180" width="290" height="40" as="geometry" />
        </mxCell>
        <mxCell id="3RX_LrMm0xTDh0tK7QWw-138" value="" style="shape=partialRectangle;connectable=0;fillColor=none;top=0;left=0;bottom=0;right=0;editable=1;overflow=hidden;shadow=1;sketch=1;hachureGap=4;fontFamily=Tahoma;fontSize=25;fontColor=#46495D;strokeColor=default;" vertex="1" parent="3RX_LrMm0xTDh0tK7QWw-137">
          <mxGeometry width="50" height="40" as="geometry">
            <mxRectangle width="50" height="40" as="alternateBounds" />
          </mxGeometry>
        </mxCell>
        <mxCell id="3RX_LrMm0xTDh0tK7QWw-139" value="updatedAt" style="shape=partialRectangle;connectable=0;fillColor=none;top=0;left=0;bottom=0;right=0;align=left;spacingLeft=6;overflow=hidden;shadow=1;sketch=1;hachureGap=4;fontFamily=Tahoma;fontSize=25;fontColor=#46495D;strokeColor=default;" vertex="1" parent="3RX_LrMm0xTDh0tK7QWw-137">
          <mxGeometry x="50" width="240" height="40" as="geometry">
            <mxRectangle width="240" height="40" as="alternateBounds" />
          </mxGeometry>
        </mxCell>
        <mxCell id="3RX_LrMm0xTDh0tK7QWw-140" value="" style="shape=tableRow;horizontal=0;startSize=0;swimlaneHead=0;swimlaneBody=0;fillColor=none;collapsible=0;dropTarget=0;points=[[0,0.5],[1,0.5]];portConstraint=eastwest;top=0;left=0;right=0;bottom=0;shadow=1;sketch=1;hachureGap=4;fontFamily=Tahoma;fontSize=25;fontColor=#46495D;strokeColor=default;" vertex="1" parent="3RX_LrMm0xTDh0tK7QWw-124">
          <mxGeometry y="220" width="290" height="40" as="geometry" />
        </mxCell>
        <mxCell id="3RX_LrMm0xTDh0tK7QWw-141" value="" style="shape=partialRectangle;connectable=0;fillColor=none;top=0;left=0;bottom=0;right=0;editable=1;overflow=hidden;shadow=1;sketch=1;hachureGap=4;fontFamily=Tahoma;fontSize=25;fontColor=#46495D;strokeColor=default;" vertex="1" parent="3RX_LrMm0xTDh0tK7QWw-140">
          <mxGeometry width="50" height="40" as="geometry">
            <mxRectangle width="50" height="40" as="alternateBounds" />
          </mxGeometry>
        </mxCell>
        <mxCell id="3RX_LrMm0xTDh0tK7QWw-142" value="deletedAt" style="shape=partialRectangle;connectable=0;fillColor=none;top=0;left=0;bottom=0;right=0;align=left;spacingLeft=6;overflow=hidden;shadow=1;sketch=1;hachureGap=4;fontFamily=Tahoma;fontSize=25;fontColor=#46495D;strokeColor=default;" vertex="1" parent="3RX_LrMm0xTDh0tK7QWw-140">
          <mxGeometry x="50" width="240" height="40" as="geometry">
            <mxRectangle width="240" height="40" as="alternateBounds" />
          </mxGeometry>
        </mxCell>
        <mxCell id="3RX_LrMm0xTDh0tK7QWw-148" style="edgeStyle=orthogonalEdgeStyle;rounded=0;orthogonalLoop=1;jettySize=auto;html=1;entryX=0;entryY=0.5;entryDx=0;entryDy=0;startArrow=ERone;startFill=0;endArrow=ERmandOne;endFill=0;" edge="1" parent="1" source="3RX_LrMm0xTDh0tK7QWw-32" target="3RX_LrMm0xTDh0tK7QWw-17">
          <mxGeometry relative="1" as="geometry" />
        </mxCell>
        <mxCell id="3RX_LrMm0xTDh0tK7QWw-149" style="edgeStyle=orthogonalEdgeStyle;rounded=0;orthogonalLoop=1;jettySize=auto;html=1;startArrow=ERmandOne;startFill=0;endArrow=baseDash;endFill=0;" edge="1" parent="1" source="3RX_LrMm0xTDh0tK7QWw-29" target="3RX_LrMm0xTDh0tK7QWw-134">
          <mxGeometry relative="1" as="geometry" />
        </mxCell>
      </root>
    </mxGraphModel>
  </diagram>
</mxfile>
